<?xml version="1.0" standalone="no"?>
<!DOCTYPE svg PUBLIC "-//W3C//DTD SVG 20010904//EN"
 "http://www.w3.org/TR/2001/REC-SVG-20010904/DTD/svg10.dtd">
<svg version="1.0" xmlns="http://www.w3.org/2000/svg"
 width="905.000000pt" height="1280.000000pt" viewBox="0 0 905.000000 1280.000000"
 preserveAspectRatio="xMidYMid meet">
<g transform="translate(0.000000,1280.000000) scale(0.100000,-0.100000)"
fill="#000000" stroke="none">
<path d="M3445 11013 c-1234 -76 -2252 -724 -2598 -1653 -84 -226 -119 -435
-120 -710 0 -444 113 -778 343 -1010 229 -231 578 -390 942 -430 520 -55 989
147 1177 509 203 390 103 955 -227 1288 -122 124 -284 215 -430 243 -84 17
-306 8 -492 -20 -201 -30 -365 -29 -445 0 -189 71 -240 291 -123 525 46 90 84
141 178 239 258 268 650 475 1120 590 222 55 348 70 580 69 241 0 374 -20 560
-82 221 -74 398 -182 568 -345 363 -349 594 -887 679 -1576 22 -182 25 -784 5
-980 -103 -991 -394 -1835 -911 -2635 -625 -969 -1518 -1800 -3066 -2855 -132
-90 -276 -190 -320 -224 -102 -77 -237 -207 -275 -266 -39 -61 -57 -131 -43
-163 15 -33 89 -67 145 -67 118 0 428 146 968 455 272 156 1302 772 1490 890
1243 785 2096 1518 2700 2321 560 743 886 1523 977 2336 23 208 23 621 0 808
-94 747 -390 1360 -898 1856 -539 525 -1235 827 -2039 884 -134 9 -326 11
-445 3z"/>
<path d="M7786 10054 c-339 -82 -552 -433 -466 -768 75 -295 363 -517 672
-518 110 0 172 14 275 63 307 146 417 530 251 869 -34 69 -60 102 -133 176
-102 102 -171 144 -291 174 -91 24 -221 25 -308 4z"/>
<path d="M7838 7430 c-257 -46 -455 -229 -518 -476 -90 -351 142 -707 524
-804 310 -78 624 93 723 395 36 110 38 263 5 379 -69 243 -252 433 -472 491
-70 19 -201 26 -262 15z"/>
</g>
</svg>
